<?xml version="1.0" encoding="UTF-8"?>
<svg xmlns="http://www.w3.org/2000/svg" xmlns:xlink="http://www.w3.org/1999/xlink" width="854pt" height="480pt" viewBox="0 0 854 480" version="1.1">
<defs>
<g>
<symbol overflow="visible" id="glyph0-0">
<path style="stroke:none;" d="M 0.34375 1.21875 L 0.34375 -4.890625 L 3.8125 -4.890625 L 3.8125 1.21875 Z M 0.734375 0.84375 L 3.421875 0.84375 L 3.421875 -4.5 L 0.734375 -4.5 Z "/>
</symbol>
<symbol overflow="visible" id="glyph0-1">
<path style="stroke:none;" d="M 1.390625 -1.828125 L 3.25 -1.828125 L 2.3125 -4.234375 Z M -0.046875 0 L -0.046875 -0.359375 L 0.40625 -0.359375 L 2.203125 -5.0625 L 2.78125 -5.0625 L 4.578125 -0.359375 L 5.078125 -0.359375 L 5.078125 0 L 3.234375 0 L 3.234375 -0.359375 L 3.796875 -0.359375 L 3.375 -1.46875 L 1.25 -1.46875 L 0.828125 -0.359375 L 1.375 -0.359375 L 1.375 0 Z "/>
</symbol>
<symbol overflow="visible" id="glyph0-2">
<path style="stroke:none;" d="M 1.421875 -0.359375 L 2.015625 -0.359375 L 2.015625 0 L 0.203125 0 L 0.203125 -0.359375 L 0.796875 -0.359375 L 0.796875 -4.90625 L 0.203125 -4.90625 L 0.203125 -5.265625 L 1.421875 -5.265625 Z "/>
</symbol>
<symbol overflow="visible" id="glyph0-3">
<path style="stroke:none;" d="M 0.671875 -4.71875 C 0.671875 -4.820312 0.707031 -4.910156 0.78125 -4.984375 C 0.863281 -5.066406 0.957031 -5.109375 1.0625 -5.109375 C 1.164062 -5.109375 1.253906 -5.066406 1.328125 -4.984375 C 1.398438 -4.910156 1.4375 -4.820312 1.4375 -4.71875 C 1.4375 -4.613281 1.398438 -4.523438 1.328125 -4.453125 C 1.253906 -4.378906 1.164062 -4.34375 1.0625 -4.34375 C 0.957031 -4.34375 0.863281 -4.378906 0.78125 -4.453125 C 0.707031 -4.523438 0.671875 -4.613281 0.671875 -4.71875 Z M 1.46875 -0.359375 L 2.0625 -0.359375 L 2.0625 0 L 0.25 0 L 0.25 -0.359375 L 0.84375 -0.359375 L 0.84375 -3.234375 L 0.25 -3.234375 L 0.25 -3.59375 L 1.46875 -3.59375 Z "/>
</symbol>
<symbol overflow="visible" id="glyph0-4">
<path style="stroke:none;" d="M 3.5625 -1.078125 C 3.476562 -0.691406 3.3125 -0.398438 3.0625 -0.203125 C 2.8125 -0.00390625 2.488281 0.09375 2.09375 0.09375 C 1.5625 0.09375 1.132812 -0.078125 0.8125 -0.421875 C 0.5 -0.765625 0.34375 -1.222656 0.34375 -1.796875 C 0.34375 -2.378906 0.5 -2.84375 0.8125 -3.1875 C 1.132812 -3.53125 1.5625 -3.703125 2.09375 -3.703125 C 2.3125 -3.703125 2.535156 -3.675781 2.765625 -3.625 C 2.992188 -3.570312 3.222656 -3.488281 3.453125 -3.375 L 3.453125 -2.453125 L 3.09375 -2.453125 C 3.039062 -2.773438 2.929688 -3.003906 2.765625 -3.140625 C 2.609375 -3.285156 2.382812 -3.359375 2.09375 -3.359375 C 1.757812 -3.359375 1.503906 -3.226562 1.328125 -2.96875 C 1.160156 -2.707031 1.078125 -2.316406 1.078125 -1.796875 C 1.078125 -1.273438 1.160156 -0.882812 1.328125 -0.625 C 1.492188 -0.363281 1.75 -0.234375 2.09375 -0.234375 C 2.363281 -0.234375 2.578125 -0.300781 2.734375 -0.4375 C 2.898438 -0.582031 3.007812 -0.796875 3.0625 -1.078125 Z "/>
</symbol>
<symbol overflow="visible" id="glyph0-5">
<path style="stroke:none;" d="M 3.765625 -1.734375 L 1.078125 -1.734375 L 1.078125 -1.703125 C 1.078125 -1.222656 1.164062 -0.859375 1.34375 -0.609375 C 1.53125 -0.359375 1.800781 -0.234375 2.15625 -0.234375 C 2.425781 -0.234375 2.648438 -0.304688 2.828125 -0.453125 C 3.003906 -0.597656 3.128906 -0.8125 3.203125 -1.09375 L 3.703125 -1.09375 C 3.597656 -0.695312 3.410156 -0.398438 3.140625 -0.203125 C 2.878906 -0.00390625 2.53125 0.09375 2.09375 0.09375 C 1.5625 0.09375 1.132812 -0.078125 0.8125 -0.421875 C 0.5 -0.765625 0.34375 -1.222656 0.34375 -1.796875 C 0.34375 -2.367188 0.5 -2.828125 0.8125 -3.171875 C 1.125 -3.523438 1.535156 -3.703125 2.046875 -3.703125 C 2.597656 -3.703125 3.019531 -3.53125 3.3125 -3.1875 C 3.601562 -2.851562 3.753906 -2.367188 3.765625 -1.734375 Z M 3.03125 -2.09375 C 3.007812 -2.507812 2.914062 -2.820312 2.75 -3.03125 C 2.59375 -3.25 2.359375 -3.359375 2.046875 -3.359375 C 1.765625 -3.359375 1.539062 -3.25 1.375 -3.03125 C 1.207031 -2.820312 1.109375 -2.507812 1.078125 -2.09375 Z "/>
</symbol>
</g>
</defs>
<g id="surface7">
<g style="fill:rgb(34.509804%,65.098039%,100%);fill-opacity:1;">
  <use xlink:href="#glyph0-1" x="30" y="26.446289"/>
  <use xlink:href="#glyph0-2" x="35" y="26.446289"/>
  <use xlink:href="#glyph0-3" x="37" y="26.446289"/>
  <use xlink:href="#glyph0-4" x="39" y="26.446289"/>
  <use xlink:href="#glyph0-5" x="43" y="26.446289"/>
</g>
</g>
</svg>
