<?xml version="1.0" encoding="UTF-8"?>
<svg xmlns="http://www.w3.org/2000/svg" xmlns:xlink="http://www.w3.org/1999/xlink" width="854pt" height="480pt" viewBox="0 0 854 480" version="1.1">
<defs>
<g>
<symbol overflow="visible" id="glyph0-0">
<path style="stroke:none;" d="M 0.90625 3.234375 L 0.90625 -12.921875 L 10.078125 -12.921875 L 10.078125 3.234375 Z M 1.9375 2.21875 L 9.0625 2.21875 L 9.0625 -11.890625 L 1.9375 -11.890625 Z "/>
</symbol>
<symbol overflow="visible" id="glyph0-1">
<path style="stroke:none;" d="M 9.734375 -6.53125 C 10.265625 -6.445312 10.707031 -6.265625 11.0625 -5.984375 C 11.425781 -5.710938 11.742188 -5.320312 12.015625 -4.8125 L 13.96875 -1.078125 L 15.34375 -1.078125 L 15.34375 0 L 10.9375 0 L 8.8125 -4.03125 C 8.40625 -4.863281 8.054688 -5.394531 7.765625 -5.625 C 7.472656 -5.863281 7.070312 -5.984375 6.5625 -5.984375 L 6.015625 -5.984375 L 6.015625 -1.078125 L 7.734375 -1.078125 L 7.734375 0 L 0.859375 0 L 0.859375 -1.078125 L 2.5625 -1.078125 L 2.5625 -12.28125 L 0.859375 -12.28125 L 0.859375 -13.359375 L 8.484375 -13.359375 C 10.035156 -13.359375 11.234375 -13.046875 12.078125 -12.421875 C 12.921875 -11.796875 13.34375 -10.910156 13.34375 -9.765625 C 13.34375 -8.835938 13.039062 -8.101562 12.4375 -7.5625 C 11.84375 -7.019531 10.941406 -6.675781 9.734375 -6.53125 Z M 6.015625 -7.046875 L 7.1875 -7.046875 C 8.019531 -7.046875 8.660156 -7.269531 9.109375 -7.71875 C 9.566406 -8.175781 9.796875 -8.828125 9.796875 -9.671875 C 9.796875 -10.515625 9.566406 -11.160156 9.109375 -11.609375 C 8.660156 -12.054688 8.019531 -12.28125 7.1875 -12.28125 L 6.015625 -12.28125 Z "/>
</symbol>
<symbol overflow="visible" id="glyph0-2">
<path style="stroke:none;" d="M 1.6875 -12.203125 C 1.6875 -12.691406 1.851562 -13.097656 2.1875 -13.421875 C 2.519531 -13.753906 2.925781 -13.921875 3.40625 -13.921875 C 3.875 -13.921875 4.273438 -13.753906 4.609375 -13.421875 C 4.941406 -13.097656 5.109375 -12.691406 5.109375 -12.203125 C 5.109375 -11.734375 4.941406 -11.332031 4.609375 -11 C 4.273438 -10.664062 3.875 -10.5 3.40625 -10.5 C 2.925781 -10.5 2.519531 -10.660156 2.1875 -10.984375 C 1.851562 -11.316406 1.6875 -11.722656 1.6875 -12.203125 Z M 5.140625 -1.078125 L 6.5 -1.078125 L 6.5 0 L 0.625 0 L 0.625 -1.078125 L 1.984375 -1.078125 L 1.984375 -8.4375 L 0.625 -8.4375 L 0.625 -9.515625 L 5.140625 -9.515625 Z "/>
</symbol>
<symbol overflow="visible" id="glyph0-3">
<path style="stroke:none;" d="M 7.34375 -5.375 C 7.34375 -6.625 7.226562 -7.5 7 -8 C 6.769531 -8.507812 6.375 -8.765625 5.8125 -8.765625 C 5.269531 -8.765625 4.878906 -8.515625 4.640625 -8.015625 C 4.398438 -7.523438 4.28125 -6.695312 4.28125 -5.53125 L 4.28125 -5.375 Z M 10.828125 -4.296875 L 4.28125 -4.296875 L 4.28125 -4.234375 C 4.28125 -3.003906 4.460938 -2.113281 4.828125 -1.5625 C 5.203125 -1.019531 5.800781 -0.75 6.625 -0.75 C 7.3125 -0.75 7.867188 -0.929688 8.296875 -1.296875 C 8.722656 -1.660156 8.992188 -2.1875 9.109375 -2.875 L 10.59375 -2.875 C 10.34375 -1.800781 9.832031 -1.007812 9.0625 -0.5 C 8.300781 0.0078125 7.234375 0.265625 5.859375 0.265625 C 4.210938 0.265625 2.945312 -0.164062 2.0625 -1.03125 C 1.1875 -1.90625 0.75 -3.148438 0.75 -4.765625 C 0.75 -6.335938 1.195312 -7.5625 2.09375 -8.4375 C 3 -9.320312 4.253906 -9.765625 5.859375 -9.765625 C 7.429688 -9.765625 8.640625 -9.300781 9.484375 -8.375 C 10.328125 -7.445312 10.773438 -6.085938 10.828125 -4.296875 Z "/>
</symbol>
<symbol overflow="visible" id="glyph0-4">
<path style="stroke:none;" d="M 11.125 -7.953125 C 11.5625 -8.585938 12.035156 -9.046875 12.546875 -9.328125 C 13.066406 -9.617188 13.671875 -9.765625 14.359375 -9.765625 C 15.453125 -9.765625 16.265625 -9.457031 16.796875 -8.84375 C 17.335938 -8.226562 17.609375 -7.296875 17.609375 -6.046875 L 17.609375 -1.078125 L 18.96875 -1.078125 L 18.96875 0 L 13.3125 0 L 13.3125 -1.078125 L 14.4375 -1.078125 L 14.4375 -5.578125 C 14.4375 -6.765625 14.34375 -7.507812 14.15625 -7.8125 C 13.976562 -8.125 13.644531 -8.28125 13.15625 -8.28125 C 12.59375 -8.28125 12.15625 -8.0625 11.84375 -7.625 C 11.539062 -7.195312 11.390625 -6.585938 11.390625 -5.796875 L 11.390625 -1.078125 L 12.515625 -1.078125 L 12.515625 0 L 7.078125 0 L 7.078125 -1.078125 L 8.21875 -1.078125 L 8.21875 -5.578125 C 8.21875 -6.765625 8.125 -7.507812 7.9375 -7.8125 C 7.75 -8.125 7.410156 -8.28125 6.921875 -8.28125 C 6.359375 -8.28125 5.921875 -8.0625 5.609375 -7.625 C 5.296875 -7.195312 5.140625 -6.585938 5.140625 -5.796875 L 5.140625 -1.078125 L 6.28125 -1.078125 L 6.28125 0 L 0.625 0 L 0.625 -1.078125 L 1.984375 -1.078125 L 1.984375 -8.4375 L 0.625 -8.4375 L 0.625 -9.515625 L 5.140625 -9.515625 L 5.140625 -8.171875 C 5.515625 -8.722656 5.9375 -9.125 6.40625 -9.375 C 6.882812 -9.632812 7.453125 -9.765625 8.109375 -9.765625 C 8.890625 -9.765625 9.519531 -9.617188 10 -9.328125 C 10.488281 -9.035156 10.863281 -8.578125 11.125 -7.953125 Z "/>
</symbol>
<symbol overflow="visible" id="glyph0-5">
<path style="stroke:none;" d="M 10.09375 -5.84375 L 10.09375 -1.078125 L 11.453125 -1.078125 L 11.453125 0 L 6.921875 0 L 6.921875 -1.203125 C 6.503906 -0.703125 6.039062 -0.332031 5.53125 -0.09375 C 5.019531 0.144531 4.4375 0.265625 3.78125 0.265625 C 2.800781 0.265625 2.050781 0.00390625 1.53125 -0.515625 C 1.007812 -1.046875 0.75 -1.796875 0.75 -2.765625 C 0.75 -3.835938 1.125 -4.632812 1.875 -5.15625 C 2.625 -5.6875 3.753906 -5.953125 5.265625 -5.953125 L 6.921875 -5.953125 L 6.921875 -6.53125 C 6.921875 -7.289062 6.738281 -7.851562 6.375 -8.21875 C 6.007812 -8.59375 5.445312 -8.78125 4.6875 -8.78125 C 4.050781 -8.78125 3.5625 -8.648438 3.21875 -8.390625 C 2.882812 -8.128906 2.644531 -7.703125 2.5 -7.109375 L 1.484375 -7.109375 L 1.484375 -9.171875 C 2.046875 -9.367188 2.628906 -9.515625 3.234375 -9.609375 C 3.847656 -9.710938 4.492188 -9.765625 5.171875 -9.765625 C 6.867188 -9.765625 8.113281 -9.445312 8.90625 -8.8125 C 9.695312 -8.1875 10.09375 -7.195312 10.09375 -5.84375 Z M 6.921875 -2.984375 L 6.921875 -4.890625 L 5.734375 -4.890625 C 5.140625 -4.890625 4.6875 -4.726562 4.375 -4.40625 C 4.0625 -4.082031 3.90625 -3.625 3.90625 -3.03125 C 3.90625 -2.425781 4.019531 -1.972656 4.25 -1.671875 C 4.476562 -1.367188 4.828125 -1.21875 5.296875 -1.21875 C 5.785156 -1.21875 6.175781 -1.378906 6.46875 -1.703125 C 6.769531 -2.023438 6.921875 -2.453125 6.921875 -2.984375 Z "/>
</symbol>
<symbol overflow="visible" id="glyph0-6">
<path style="stroke:none;" d="M 0.625 0 L 0.625 -1.078125 L 1.984375 -1.078125 L 1.984375 -8.4375 L 0.625 -8.4375 L 0.625 -9.515625 L 5.140625 -9.515625 L 5.140625 -8.171875 C 5.523438 -8.734375 5.960938 -9.140625 6.453125 -9.390625 C 6.941406 -9.640625 7.5625 -9.765625 8.3125 -9.765625 C 9.375 -9.765625 10.175781 -9.453125 10.71875 -8.828125 C 11.269531 -8.203125 11.546875 -7.273438 11.546875 -6.046875 L 11.546875 -1.078125 L 12.90625 -1.078125 L 12.90625 0 L 7.21875 0 L 7.21875 -1.078125 L 8.375 -1.078125 L 8.375 -6.140625 C 8.375 -6.941406 8.269531 -7.5 8.0625 -7.8125 C 7.863281 -8.125 7.507812 -8.28125 7 -8.28125 C 6.363281 -8.28125 5.894531 -8.046875 5.59375 -7.578125 C 5.289062 -7.109375 5.140625 -6.367188 5.140625 -5.359375 L 5.140625 -1.078125 L 6.3125 -1.078125 L 6.3125 0 Z "/>
</symbol>
<symbol overflow="visible" id="glyph0-7">
<path style="stroke:none;" d="M 1 -6.125 L 6.609375 -6.125 L 6.609375 -3.703125 L 1 -3.703125 Z "/>
</symbol>
<symbol overflow="visible" id="glyph0-8">
<path style="stroke:none;" d="M 6.125 -0.75 C 6.789062 -0.75 7.257812 -1.035156 7.53125 -1.609375 C 7.800781 -2.179688 7.9375 -3.234375 7.9375 -4.765625 C 7.9375 -6.285156 7.800781 -7.332031 7.53125 -7.90625 C 7.257812 -8.476562 6.789062 -8.765625 6.125 -8.765625 C 5.445312 -8.765625 4.96875 -8.472656 4.6875 -7.890625 C 4.414062 -7.316406 4.28125 -6.273438 4.28125 -4.765625 C 4.28125 -3.242188 4.414062 -2.191406 4.6875 -1.609375 C 4.96875 -1.035156 5.445312 -0.75 6.125 -0.75 Z M 6.125 0.265625 C 4.445312 0.265625 3.128906 -0.179688 2.171875 -1.078125 C 1.222656 -1.972656 0.75 -3.203125 0.75 -4.765625 C 0.75 -6.328125 1.222656 -7.550781 2.171875 -8.4375 C 3.128906 -9.320312 4.445312 -9.765625 6.125 -9.765625 C 7.800781 -9.765625 9.113281 -9.320312 10.0625 -8.4375 C 11.007812 -7.550781 11.484375 -6.328125 11.484375 -4.765625 C 11.484375 -3.203125 11.007812 -1.972656 10.0625 -1.078125 C 9.113281 -0.179688 7.800781 0.265625 6.125 0.265625 Z "/>
</symbol>
<symbol overflow="visible" id="glyph0-9">
<path style="stroke:none;" d="M 10.34375 -2.96875 C 10.113281 -1.882812 9.644531 -1.070312 8.9375 -0.53125 C 8.238281 0 7.285156 0.265625 6.078125 0.265625 C 4.390625 0.265625 3.078125 -0.171875 2.140625 -1.046875 C 1.210938 -1.929688 0.75 -3.171875 0.75 -4.765625 C 0.75 -6.335938 1.207031 -7.5625 2.125 -8.4375 C 3.050781 -9.320312 4.328125 -9.765625 5.953125 -9.765625 C 6.617188 -9.765625 7.285156 -9.703125 7.953125 -9.578125 C 8.628906 -9.453125 9.316406 -9.265625 10.015625 -9.015625 L 10.015625 -6.375 L 9.015625 -6.375 C 8.921875 -7.1875 8.6875 -7.785156 8.3125 -8.171875 C 7.9375 -8.566406 7.410156 -8.765625 6.734375 -8.765625 C 5.847656 -8.765625 5.21875 -8.460938 4.84375 -7.859375 C 4.46875 -7.265625 4.28125 -6.234375 4.28125 -4.765625 C 4.28125 -3.328125 4.460938 -2.296875 4.828125 -1.671875 C 5.191406 -1.054688 5.785156 -0.75 6.609375 -0.75 C 7.253906 -0.75 7.765625 -0.9375 8.140625 -1.3125 C 8.523438 -1.695312 8.757812 -2.25 8.84375 -2.96875 Z "/>
</symbol>
<symbol overflow="visible" id="glyph0-10">
<path style="stroke:none;" d="M 0.625 0 L 0.625 -1.078125 L 1.984375 -1.078125 L 1.984375 -12.84375 L 0.5625 -12.84375 L 0.5625 -13.921875 L 5.140625 -13.921875 L 5.140625 -8.171875 C 5.523438 -8.734375 5.960938 -9.140625 6.453125 -9.390625 C 6.941406 -9.640625 7.5625 -9.765625 8.3125 -9.765625 C 9.375 -9.765625 10.175781 -9.453125 10.71875 -8.828125 C 11.269531 -8.203125 11.546875 -7.273438 11.546875 -6.046875 L 11.546875 -1.078125 L 12.90625 -1.078125 L 12.90625 0 L 7.21875 0 L 7.21875 -1.078125 L 8.375 -1.078125 L 8.375 -6.140625 C 8.375 -6.941406 8.269531 -7.5 8.0625 -7.8125 C 7.863281 -8.125 7.507812 -8.28125 7 -8.28125 C 6.363281 -8.28125 5.894531 -8.046875 5.59375 -7.578125 C 5.289062 -7.109375 5.140625 -6.367188 5.140625 -5.359375 L 5.140625 -1.078125 L 6.3125 -1.078125 L 6.3125 0 Z "/>
</symbol>
<symbol overflow="visible" id="glyph0-11">
<path style="stroke:none;" d=""/>
</symbol>
<symbol overflow="visible" id="glyph0-12">
<path style="stroke:none;" d="M 3.3125 0 L 3.3125 -1.078125 L 5.09375 -1.078125 L 5.09375 -12.140625 L 1.4375 -12.140625 L 1.4375 -10.015625 L 0.203125 -10.015625 L 0.203125 -13.359375 L 13.453125 -13.359375 L 13.453125 -10.015625 L 12.25 -10.015625 L 12.25 -12.140625 L 8.5625 -12.140625 L 8.5625 -1.078125 L 10.34375 -1.078125 L 10.34375 0 Z "/>
</symbol>
<symbol overflow="visible" id="glyph0-13">
<path style="stroke:none;" d="M 9.84375 -9.625 L 9.84375 -6.78125 L 8.828125 -6.78125 C 8.796875 -7.289062 8.660156 -7.664062 8.421875 -7.90625 C 8.179688 -8.15625 7.835938 -8.28125 7.390625 -8.28125 C 6.691406 -8.28125 6.140625 -7.976562 5.734375 -7.375 C 5.335938 -6.769531 5.140625 -5.925781 5.140625 -4.84375 L 5.140625 -1.078125 L 6.875 -1.078125 L 6.875 0 L 0.625 0 L 0.625 -1.078125 L 1.984375 -1.078125 L 1.984375 -8.4375 L 0.53125 -8.4375 L 0.53125 -9.515625 L 5.140625 -9.515625 L 5.140625 -7.828125 C 5.453125 -8.484375 5.863281 -8.96875 6.375 -9.28125 C 6.882812 -9.601562 7.507812 -9.765625 8.25 -9.765625 C 8.4375 -9.765625 8.660156 -9.75 8.921875 -9.71875 C 9.191406 -9.695312 9.5 -9.664062 9.84375 -9.625 Z "/>
</symbol>
</g>
</defs>
<g id="surface1">
<g style="fill:rgb(100%,100%,100%);fill-opacity:1;">
  <use xlink:href="#glyph0-1" x="30" y="37.213867"/>
  <use xlink:href="#glyph0-2" x="45" y="37.213867"/>
  <use xlink:href="#glyph0-3" x="52" y="37.213867"/>
  <use xlink:href="#glyph0-4" x="64" y="37.213867"/>
  <use xlink:href="#glyph0-5" x="83" y="37.213867"/>
  <use xlink:href="#glyph0-6" x="95" y="37.213867"/>
  <use xlink:href="#glyph0-6" x="108" y="37.213867"/>
  <use xlink:href="#glyph0-7" x="121" y="37.213867"/>
  <use xlink:href="#glyph0-1" x="129" y="37.213867"/>
  <use xlink:href="#glyph0-8" x="144" y="37.213867"/>
  <use xlink:href="#glyph0-9" x="156" y="37.213867"/>
  <use xlink:href="#glyph0-10" x="167" y="37.213867"/>
  <use xlink:href="#glyph0-11" x="180" y="37.213867"/>
  <use xlink:href="#glyph0-12" x="186" y="37.213867"/>
  <use xlink:href="#glyph0-10" x="200" y="37.213867"/>
  <use xlink:href="#glyph0-3" x="213" y="37.213867"/>
  <use xlink:href="#glyph0-8" x="225" y="37.213867"/>
  <use xlink:href="#glyph0-13" x="237" y="37.213867"/>
  <use xlink:href="#glyph0-3" x="247" y="37.213867"/>
  <use xlink:href="#glyph0-4" x="259" y="37.213867"/>
</g>
</g>
</svg>
