<?xml version="1.0" encoding="UTF-8"?>
<svg xmlns="http://www.w3.org/2000/svg" xmlns:xlink="http://www.w3.org/1999/xlink" width="854pt" height="480pt" viewBox="0 0 854 480" version="1.1">
<defs>
<g>
<symbol overflow="visible" id="glyph0-0">
<path style="stroke:none;" d="M 0.359375 1.28125 L 0.359375 -5.09375 L 3.96875 -5.09375 L 3.96875 1.28125 Z M 0.765625 0.875 L 3.5625 0.875 L 3.5625 -4.6875 L 0.765625 -4.6875 Z "/>
</symbol>
<symbol overflow="visible" id="glyph0-1">
<path style="stroke:none;" d="M 5.375 -1.5 C 5.238281 -0.957031 4.988281 -0.550781 4.625 -0.28125 C 4.269531 -0.0195312 3.789062 0.109375 3.1875 0.109375 C 2.289062 0.109375 1.582031 -0.132812 1.0625 -0.625 C 0.550781 -1.125 0.296875 -1.789062 0.296875 -2.625 C 0.296875 -3.46875 0.550781 -4.132812 1.0625 -4.625 C 1.582031 -5.113281 2.289062 -5.359375 3.1875 -5.359375 C 3.5 -5.359375 3.820312 -5.316406 4.15625 -5.234375 C 4.5 -5.160156 4.859375 -5.050781 5.234375 -4.90625 L 5.234375 -3.609375 L 4.78125 -3.609375 C 4.695312 -4.046875 4.53125 -4.375 4.28125 -4.59375 C 4.039062 -4.820312 3.722656 -4.9375 3.328125 -4.9375 C 2.816406 -4.9375 2.4375 -4.742188 2.1875 -4.359375 C 1.9375 -3.984375 1.8125 -3.40625 1.8125 -2.625 C 1.8125 -1.84375 1.9375 -1.265625 2.1875 -0.890625 C 2.4375 -0.515625 2.816406 -0.328125 3.328125 -0.328125 C 3.679688 -0.328125 3.96875 -0.421875 4.1875 -0.609375 C 4.414062 -0.804688 4.578125 -1.101562 4.671875 -1.5 Z "/>
</symbol>
<symbol overflow="visible" id="glyph0-2">
<path style="stroke:none;" d="M 2.40625 -0.296875 C 2.675781 -0.296875 2.863281 -0.40625 2.96875 -0.625 C 3.070312 -0.851562 3.125 -1.269531 3.125 -1.875 C 3.125 -2.476562 3.070312 -2.890625 2.96875 -3.109375 C 2.863281 -3.335938 2.675781 -3.453125 2.40625 -3.453125 C 2.144531 -3.453125 1.957031 -3.335938 1.84375 -3.109375 C 1.738281 -2.878906 1.6875 -2.46875 1.6875 -1.875 C 1.6875 -1.28125 1.738281 -0.867188 1.84375 -0.640625 C 1.957031 -0.410156 2.144531 -0.296875 2.40625 -0.296875 Z M 2.40625 0.109375 C 1.75 0.109375 1.234375 -0.0664062 0.859375 -0.421875 C 0.484375 -0.773438 0.296875 -1.257812 0.296875 -1.875 C 0.296875 -2.488281 0.484375 -2.96875 0.859375 -3.3125 C 1.234375 -3.664062 1.75 -3.84375 2.40625 -3.84375 C 3.070312 -3.84375 3.59375 -3.664062 3.96875 -3.3125 C 4.34375 -2.96875 4.53125 -2.488281 4.53125 -1.875 C 4.53125 -1.257812 4.34375 -0.773438 3.96875 -0.421875 C 3.59375 -0.0664062 3.070312 0.109375 2.40625 0.109375 Z "/>
</symbol>
<symbol overflow="visible" id="glyph0-3">
<path style="stroke:none;" d="M 3.875 -3.796875 L 3.875 -2.671875 L 3.484375 -2.671875 C 3.460938 -2.867188 3.40625 -3.015625 3.3125 -3.109375 C 3.21875 -3.210938 3.082031 -3.265625 2.90625 -3.265625 C 2.632812 -3.265625 2.421875 -3.144531 2.265625 -2.90625 C 2.109375 -2.664062 2.03125 -2.332031 2.03125 -1.90625 L 2.03125 -0.421875 L 2.703125 -0.421875 L 2.703125 0 L 0.25 0 L 0.25 -0.421875 L 0.78125 -0.421875 L 0.78125 -3.328125 L 0.203125 -3.328125 L 0.203125 -3.75 L 2.03125 -3.75 L 2.03125 -3.078125 C 2.144531 -3.335938 2.300781 -3.53125 2.5 -3.65625 C 2.707031 -3.78125 2.957031 -3.84375 3.25 -3.84375 C 3.320312 -3.84375 3.410156 -3.835938 3.515625 -3.828125 C 3.617188 -3.816406 3.738281 -3.804688 3.875 -3.796875 Z "/>
</symbol>
<symbol overflow="visible" id="glyph0-4">
<path style="stroke:none;" d="M 2.890625 -2.109375 C 2.890625 -2.609375 2.84375 -2.957031 2.75 -3.15625 C 2.664062 -3.351562 2.507812 -3.453125 2.28125 -3.453125 C 2.070312 -3.453125 1.921875 -3.351562 1.828125 -3.15625 C 1.734375 -2.957031 1.6875 -2.628906 1.6875 -2.171875 L 1.6875 -2.109375 Z M 4.265625 -1.703125 L 1.6875 -1.703125 L 1.6875 -1.671875 C 1.6875 -1.179688 1.757812 -0.828125 1.90625 -0.609375 C 2.050781 -0.398438 2.285156 -0.296875 2.609375 -0.296875 C 2.878906 -0.296875 3.097656 -0.363281 3.265625 -0.5 C 3.429688 -0.644531 3.539062 -0.859375 3.59375 -1.140625 L 4.171875 -1.140625 C 4.066406 -0.710938 3.863281 -0.394531 3.5625 -0.1875 C 3.269531 0.0078125 2.851562 0.109375 2.3125 0.109375 C 1.65625 0.109375 1.15625 -0.0625 0.8125 -0.40625 C 0.46875 -0.75 0.296875 -1.238281 0.296875 -1.875 C 0.296875 -2.5 0.472656 -2.984375 0.828125 -3.328125 C 1.179688 -3.671875 1.675781 -3.84375 2.3125 -3.84375 C 2.925781 -3.84375 3.398438 -3.660156 3.734375 -3.296875 C 4.066406 -2.929688 4.242188 -2.398438 4.265625 -1.703125 Z "/>
</symbol>
<symbol overflow="visible" id="glyph0-5">
<path style="stroke:none;" d="M 4.078125 -1.171875 C 3.984375 -0.742188 3.796875 -0.421875 3.515625 -0.203125 C 3.242188 0.00390625 2.867188 0.109375 2.390625 0.109375 C 1.722656 0.109375 1.207031 -0.0625 0.84375 -0.40625 C 0.476562 -0.757812 0.296875 -1.25 0.296875 -1.875 C 0.296875 -2.5 0.472656 -2.984375 0.828125 -3.328125 C 1.191406 -3.671875 1.695312 -3.84375 2.34375 -3.84375 C 2.601562 -3.84375 2.863281 -3.816406 3.125 -3.765625 C 3.394531 -3.722656 3.671875 -3.648438 3.953125 -3.546875 L 3.953125 -2.515625 L 3.546875 -2.515625 C 3.515625 -2.828125 3.421875 -3.0625 3.265625 -3.21875 C 3.117188 -3.375 2.914062 -3.453125 2.65625 -3.453125 C 2.300781 -3.453125 2.050781 -3.332031 1.90625 -3.09375 C 1.757812 -2.863281 1.6875 -2.457031 1.6875 -1.875 C 1.6875 -1.3125 1.757812 -0.90625 1.90625 -0.65625 C 2.050781 -0.414062 2.285156 -0.296875 2.609375 -0.296875 C 2.859375 -0.296875 3.054688 -0.367188 3.203125 -0.515625 C 3.359375 -0.671875 3.453125 -0.890625 3.484375 -1.171875 Z "/>
</symbol>
<symbol overflow="visible" id="glyph0-6">
<path style="stroke:none;" d="M 0.71875 -3.328125 L 0.171875 -3.328125 L 0.171875 -3.75 L 0.71875 -3.75 L 0.71875 -4.90625 L 1.96875 -4.90625 L 1.96875 -3.75 L 3 -3.75 L 3 -3.328125 L 1.96875 -3.328125 L 1.96875 -1.03125 C 1.96875 -0.695312 1.992188 -0.488281 2.046875 -0.40625 C 2.097656 -0.332031 2.191406 -0.296875 2.328125 -0.296875 C 2.472656 -0.296875 2.582031 -0.34375 2.65625 -0.4375 C 2.726562 -0.539062 2.769531 -0.703125 2.78125 -0.921875 L 3.296875 -0.921875 C 3.273438 -0.546875 3.171875 -0.28125 2.984375 -0.125 C 2.804688 0.03125 2.488281 0.109375 2.03125 0.109375 C 1.519531 0.109375 1.171875 0.03125 0.984375 -0.125 C 0.804688 -0.289062 0.71875 -0.59375 0.71875 -1.03125 Z "/>
</symbol>
<symbol overflow="visible" id="glyph0-7">
<path style="stroke:none;" d="M 3.09375 -1.6875 L 3.09375 -2.0625 C 3.09375 -2.5 3.035156 -2.8125 2.921875 -3 C 2.816406 -3.195312 2.640625 -3.296875 2.390625 -3.296875 C 2.128906 -3.296875 1.945312 -3.191406 1.84375 -2.984375 C 1.738281 -2.785156 1.6875 -2.414062 1.6875 -1.875 C 1.6875 -1.332031 1.738281 -0.957031 1.84375 -0.75 C 1.945312 -0.550781 2.128906 -0.453125 2.390625 -0.453125 C 2.640625 -0.453125 2.816406 -0.546875 2.921875 -0.734375 C 3.035156 -0.929688 3.09375 -1.25 3.09375 -1.6875 Z M 4.34375 -0.421875 L 4.875 -0.421875 L 4.875 0 L 3.09375 0 L 3.09375 -0.46875 C 2.988281 -0.28125 2.847656 -0.132812 2.671875 -0.03125 C 2.492188 0.0625 2.269531 0.109375 2 0.109375 C 1.46875 0.109375 1.050781 -0.0664062 0.75 -0.421875 C 0.445312 -0.773438 0.296875 -1.257812 0.296875 -1.875 C 0.296875 -2.488281 0.445312 -2.96875 0.75 -3.3125 C 1.050781 -3.664062 1.46875 -3.84375 2 -3.84375 C 2.269531 -3.84375 2.492188 -3.796875 2.671875 -3.703125 C 2.847656 -3.609375 2.988281 -3.460938 3.09375 -3.265625 L 3.09375 -5.0625 L 2.5625 -5.0625 L 2.5625 -5.484375 L 4.34375 -5.484375 Z "/>
</symbol>
<symbol overflow="visible" id="glyph0-8">
<path style="stroke:none;" d="M 0.921875 -0.578125 C 0.921875 -0.753906 0.984375 -0.90625 1.109375 -1.03125 C 1.242188 -1.164062 1.398438 -1.234375 1.578125 -1.234375 C 1.765625 -1.234375 1.921875 -1.164062 2.046875 -1.03125 C 2.179688 -0.90625 2.25 -0.753906 2.25 -0.578125 C 2.25 -0.390625 2.179688 -0.226562 2.046875 -0.09375 C 1.921875 0.0390625 1.765625 0.109375 1.578125 0.109375 C 1.398438 0.109375 1.242188 0.0390625 1.109375 -0.09375 C 0.984375 -0.226562 0.921875 -0.390625 0.921875 -0.578125 Z M 0.921875 -5.265625 L 2.25 -5.265625 L 1.828125 -2.296875 L 1.828125 -1.625 L 1.328125 -1.625 L 1.328125 -2.296875 Z "/>
</symbol>
</g>
</defs>
<g id="surface95">
<g style="fill:rgb(100%,100%,0%);fill-opacity:1;">
  <use xlink:href="#glyph0-1" x="30" y="26.782227"/>
  <use xlink:href="#glyph0-2" x="36" y="26.782227"/>
  <use xlink:href="#glyph0-3" x="41" y="26.782227"/>
  <use xlink:href="#glyph0-3" x="45" y="26.782227"/>
  <use xlink:href="#glyph0-4" x="49" y="26.782227"/>
  <use xlink:href="#glyph0-5" x="54" y="26.782227"/>
  <use xlink:href="#glyph0-6" x="58" y="26.782227"/>
  <use xlink:href="#glyph0-4" x="61" y="26.782227"/>
  <use xlink:href="#glyph0-7" x="66" y="26.782227"/>
  <use xlink:href="#glyph0-8" x="71" y="26.782227"/>
</g>
</g>
</svg>
